<svg width="42" height="42" viewBox="0 0 42 42" fill="none" xmlns="http://www.w3.org/2000/svg">
<rect width="42" height="42" rx="10" fill="white"/>
<path d="M18 17.806L21.562 21.746C21.6399 21.8307 21.7354 21.8973 21.8418 21.9411C21.9482 21.9849 22.0629 22.0049 22.1778 21.9997C22.2928 21.9944 22.4052 21.9641 22.5071 21.9108C22.6091 21.8574 22.6981 21.7824 22.768 21.691L30 12" stroke="#055E5D" stroke-width="1.5" stroke-linecap="round" stroke-linejoin="round"/>
<path d="M30 21C30 22.78 29.4722 24.5201 28.4832 26.0001C27.4943 27.4802 26.0887 28.6337 24.4442 29.3149C22.7996 29.9961 20.99 30.1743 19.2442 29.8271C17.4984 29.4798 15.8947 28.6226 14.636 27.364C13.3774 26.1053 12.5202 24.5016 12.1729 22.7558C11.8257 21.01 12.0039 19.2004 12.6851 17.5558C13.3663 15.9113 14.5198 14.5057 15.9999 13.5168C17.4799 12.5278 19.22 12 21 12" stroke="#055E5D" stroke-width="1.5" stroke-linecap="round" stroke-linejoin="round"/>
</svg>
