<svg width="45" height="45" viewBox="0 0 45 45" fill="none" xmlns="http://www.w3.org/2000/svg">
<rect width="45" height="45" rx="6" fill="white"/>
<path d="M19.7365 12.3983C20.4386 11.8002 20.7902 11.5005 21.1575 11.3253C21.5768 11.1253 22.0355 11.0215 22.5 11.0215C22.9645 11.0215 23.4232 11.1253 23.8425 11.3253C24.2098 11.5005 24.5614 11.8002 25.2635 12.3983C25.9872 13.0146 26.7219 13.3263 27.6886 13.4025C28.6081 13.4762 29.0685 13.5136 29.4527 13.649C30.3397 13.9631 31.0381 14.6603 31.351 15.5485C31.4864 15.9315 31.5238 16.3919 31.5975 17.3126C31.6737 18.2793 31.9842 19.0128 32.6005 19.7365C33.1998 20.4386 33.4995 20.7902 33.6747 21.1575C34.0807 22.007 34.0807 22.9942 33.6747 23.8425C33.4995 24.2098 33.1998 24.5614 32.6017 25.2635C32.0029 25.9354 31.649 26.7901 31.5975 27.6886C31.5238 28.6081 31.4864 29.0685 31.351 29.4528C31.1959 29.8907 30.9448 30.2885 30.6162 30.6169C30.2875 30.9454 29.8896 31.1962 29.4515 31.351C29.0685 31.4864 28.6081 31.5238 27.6874 31.5975C26.7207 31.6737 25.9872 31.9842 25.2635 32.6005C24.5614 33.1998 24.2098 33.4995 23.8425 33.6747C23.4232 33.8747 22.9645 33.9785 22.5 33.9785C22.0355 33.9785 21.5768 33.8747 21.1575 33.6747C20.7902 33.4995 20.4386 33.1998 19.7365 32.6017C19.0646 32.0029 18.2099 31.649 17.3114 31.5975C16.3919 31.5238 15.9315 31.4864 15.5472 31.351C15.1093 31.1959 14.7115 30.9448 14.3831 30.6162C14.0546 30.2875 13.8038 29.8896 13.649 29.4515C13.5136 29.0685 13.4762 28.6081 13.4025 27.6874C13.3511 26.7894 12.9976 25.9352 12.3995 25.2635C11.8002 24.5614 11.5005 24.2098 11.3241 23.8425C11.1243 23.4231 11.0207 22.9644 11.0209 22.4999C11.0211 22.0353 11.1251 21.5767 11.3253 21.1575C11.5005 20.7902 11.8002 20.4386 12.3983 19.7365C13.0267 18.9983 13.3275 18.2588 13.4025 17.3114C13.4762 16.3919 13.5136 15.9315 13.649 15.5473C13.8041 15.1093 14.0552 14.7115 14.3838 14.3831C14.7125 14.0547 15.1104 13.8038 15.5485 13.649C15.9315 13.5136 16.3919 13.4762 17.3126 13.4025C18.2106 13.3511 19.0648 12.9964 19.7365 12.3983Z" stroke="#013237" stroke-width="1.8125" stroke-linecap="round" stroke-linejoin="round"/>
<path d="M18.4727 23.2647L20.2912 25.3442C20.4109 25.4812 20.5599 25.5893 20.7272 25.6606C20.8945 25.732 21.0757 25.7646 21.2574 25.7561C21.4391 25.7476 21.6165 25.6983 21.7764 25.6117C21.9363 25.5251 22.0746 25.4035 22.181 25.256L26.5274 19.2373" stroke="#013237" stroke-width="1.8125" stroke-linecap="round" stroke-linejoin="round"/>
</svg>
