<svg width="45" height="45" viewBox="0 0 45 45" fill="none" xmlns="http://www.w3.org/2000/svg">
<rect width="45" height="45" rx="6" fill="white"/>
<path d="M33.375 33.375H19.3583C16.6517 33.375 15.2983 33.375 14.264 32.8482C13.3546 32.3848 12.6152 31.6454 12.1518 30.736C11.625 29.7017 11.625 28.3483 11.625 25.6417V11.625" stroke="#013237" stroke-width="1.5" stroke-linecap="round" stroke-linejoin="round"/>
<path d="M22.3671 22.2535L17.3718 16.4897C16.6384 15.6439 15.25 16.1623 15.25 17.28V27.3333C15.25 27.9743 15.5046 28.589 15.9578 29.0422C16.411 29.4954 17.0257 29.75 17.6667 29.75H28.9622C29.3693 29.7501 29.7699 29.6473 30.1268 29.4512C30.4836 29.2551 30.7851 28.9721 31.0033 28.6283C31.2215 28.2845 31.3492 27.8912 31.3748 27.4848C31.4003 27.0784 31.3227 26.6722 31.1493 26.3038L28.5695 20.8216C28.493 20.6593 28.3814 20.516 28.2427 20.4021C28.104 20.2883 27.9417 20.2068 27.7676 20.1635C27.5934 20.1202 27.4118 20.1163 27.236 20.152C27.0601 20.1876 26.8944 20.262 26.7509 20.3697L24.0044 22.4287C23.7599 22.6119 23.4551 22.6957 23.1513 22.6632C22.8475 22.6307 22.5673 22.4843 22.3671 22.2535Z" stroke="#013237" stroke-width="1.5" stroke-linecap="round" stroke-linejoin="round"/>
</svg>
