<svg width="333" height="124" viewBox="0 0 333 124" fill="none" xmlns="http://www.w3.org/2000/svg">
<g opacity="0.57">
<rect x="-10" width="343" height="238" rx="8" fill="white"/>
<path d="M6 16H317" stroke="#E6E6E6" stroke-opacity="0.5"/>
<path d="M6 52H317" stroke="#E6E6E6" stroke-opacity="0.5"/>
<path d="M6 88H317" stroke="#E6E6E6" stroke-opacity="0.5"/>
<path d="M6 124H317" stroke="#E6E6E6" stroke-opacity="0.5"/>
<path d="M8.89773 31.9091V22.8182H9.48011V31.9091H8.89773ZM10.858 25.5455C10.8153 25.1856 10.6425 24.9062 10.3395 24.7074C10.0365 24.5085 9.66477 24.4091 9.22443 24.4091C8.90246 24.4091 8.62074 24.4612 8.37926 24.5653C8.14015 24.6695 7.95313 24.8127 7.81818 24.995C7.68561 25.1773 7.61932 25.3845 7.61932 25.6165C7.61932 25.8106 7.66548 25.9775 7.75781 26.1172C7.85251 26.2545 7.97325 26.3693 8.12003 26.4616C8.26681 26.5516 8.42069 26.6262 8.58168 26.6854C8.74266 26.7422 8.89062 26.7884 9.02557 26.8239L9.7642 27.0227C9.9536 27.0724 10.1643 27.1411 10.3963 27.2287C10.6307 27.3163 10.8544 27.4358 11.0675 27.5874C11.2829 27.7365 11.4605 27.9283 11.6001 28.1626C11.7398 28.397 11.8097 28.6847 11.8097 29.0256C11.8097 29.4186 11.7067 29.7737 11.5007 30.0909C11.2971 30.4081 10.9988 30.6603 10.6058 30.8473C10.2152 31.0343 9.74053 31.1278 9.18182 31.1278C8.66098 31.1278 8.20999 31.0438 7.82884 30.8757C7.45005 30.7076 7.15175 30.4732 6.93395 30.1726C6.71851 29.8719 6.59659 29.5227 6.56818 29.125H7.47727C7.50095 29.3996 7.59328 29.6269 7.75426 29.8068C7.91761 29.9844 8.12358 30.117 8.37216 30.2045C8.62311 30.2898 8.89299 30.3324 9.18182 30.3324C9.51799 30.3324 9.81984 30.2779 10.0874 30.169C10.3549 30.0578 10.5668 29.9039 10.723 29.7074C10.8793 29.5085 10.9574 29.2765 10.9574 29.0114C10.9574 28.7699 10.8899 28.5734 10.755 28.4219C10.62 28.2704 10.4425 28.1473 10.2223 28.0526C10.0021 27.9579 9.7642 27.875 9.50852 27.804L8.61364 27.5483C8.04545 27.3849 7.59564 27.1518 7.2642 26.8487C6.93277 26.5457 6.76705 26.1491 6.76705 25.6591C6.76705 25.2519 6.87713 24.8968 7.0973 24.5938C7.31984 24.2884 7.61813 24.0516 7.99219 23.8835C8.36861 23.7131 8.78883 23.6278 9.25284 23.6278C9.72159 23.6278 10.1383 23.7119 10.5028 23.88C10.8674 24.0457 11.1563 24.273 11.3693 24.5618C11.5848 24.8506 11.6984 25.1785 11.7102 25.5455H10.858ZM15.4025 31.0994C14.9859 31.0994 14.6106 31.0166 14.2768 30.8509C13.943 30.6851 13.6755 30.4579 13.4743 30.169C13.273 29.8802 13.1629 29.5511 13.144 29.1818H13.9963C14.0294 29.5109 14.1786 29.7831 14.4437 29.9986C14.7112 30.2116 15.0308 30.3182 15.4025 30.3182C15.7008 30.3182 15.966 30.2483 16.198 30.1087C16.4324 29.969 16.6158 29.7772 16.7484 29.5334C16.8833 29.2872 16.9508 29.009 16.9508 28.6989C16.9508 28.3816 16.881 28.0987 16.7413 27.8501C16.604 27.5992 16.4146 27.4015 16.1731 27.2571C15.9316 27.1127 15.6558 27.0393 15.3457 27.0369C15.1232 27.0346 14.8947 27.0689 14.6603 27.1399C14.426 27.2086 14.233 27.2973 14.0815 27.4062L13.2576 27.3068L13.698 23.7273H17.4764V24.5085H14.4366L14.1809 26.6534H14.2235C14.3727 26.535 14.5597 26.4368 14.7846 26.3587C15.0095 26.2805 15.2439 26.2415 15.4877 26.2415C15.9328 26.2415 16.3294 26.348 16.6774 26.5611C17.0278 26.7718 17.3024 27.0606 17.5012 27.4276C17.7025 27.7945 17.8031 28.2135 17.8031 28.6847C17.8031 29.1487 17.6989 29.563 17.4906 29.9276C17.2846 30.2898 17.0005 30.5762 16.6383 30.7869C16.2761 30.9953 15.8642 31.0994 15.4025 31.0994ZM21.5859 31.0994C21.0509 31.0994 20.5952 30.9538 20.2188 30.6626C19.8423 30.3691 19.5547 29.9441 19.3558 29.3878C19.157 28.8291 19.0575 28.1544 19.0575 27.3636C19.0575 26.5777 19.157 25.9065 19.3558 25.3501C19.5571 24.7914 19.8459 24.3653 20.2223 24.0717C20.6011 23.7758 21.0556 23.6278 21.5859 23.6278C22.1162 23.6278 22.5696 23.7758 22.946 24.0717C23.3248 24.3653 23.6136 24.7914 23.8125 25.3501C24.0137 25.9065 24.1143 26.5777 24.1143 27.3636C24.1143 28.1544 24.0149 28.8291 23.8161 29.3878C23.6172 29.9441 23.3295 30.3691 22.9531 30.6626C22.5767 30.9538 22.121 31.0994 21.5859 31.0994ZM21.5859 30.3182C22.1162 30.3182 22.5282 30.0625 22.8217 29.5511C23.1153 29.0398 23.2621 28.3106 23.2621 27.3636C23.2621 26.7339 23.1946 26.1977 23.0597 25.755C22.9271 25.3123 22.7353 24.9749 22.4844 24.7429C22.2358 24.5109 21.9363 24.3949 21.5859 24.3949C21.0604 24.3949 20.6496 24.6541 20.3537 25.1726C20.0578 25.6887 19.9098 26.419 19.9098 27.3636C19.9098 27.9934 19.9761 28.5284 20.1087 28.9688C20.2412 29.4091 20.4318 29.7441 20.6804 29.9737C20.9313 30.2034 21.2332 30.3182 21.5859 30.3182ZM25.5916 31V23.7273H26.4723V27.3352H26.5575L29.8246 23.7273H30.9751L27.9212 27.0085L30.9751 31H29.9098L27.3814 27.6193L26.4723 28.642V31H25.5916Z" fill="#828282"/>
<path d="M8.89773 67.9091V58.8182H9.48011V67.9091H8.89773ZM10.858 61.5455C10.8153 61.1856 10.6425 60.9062 10.3395 60.7074C10.0365 60.5085 9.66477 60.4091 9.22443 60.4091C8.90246 60.4091 8.62074 60.4612 8.37926 60.5653C8.14015 60.6695 7.95313 60.8127 7.81818 60.995C7.68561 61.1773 7.61932 61.3845 7.61932 61.6165C7.61932 61.8106 7.66548 61.9775 7.75781 62.1172C7.85251 62.2545 7.97325 62.3693 8.12003 62.4616C8.26681 62.5516 8.42069 62.6262 8.58168 62.6854C8.74266 62.7422 8.89062 62.7884 9.02557 62.8239L9.7642 63.0227C9.9536 63.0724 10.1643 63.1411 10.3963 63.2287C10.6307 63.3163 10.8544 63.4358 11.0675 63.5874C11.2829 63.7365 11.4605 63.9283 11.6001 64.1626C11.7398 64.397 11.8097 64.6847 11.8097 65.0256C11.8097 65.4186 11.7067 65.7737 11.5007 66.0909C11.2971 66.4081 10.9988 66.6603 10.6058 66.8473C10.2152 67.0343 9.74053 67.1278 9.18182 67.1278C8.66098 67.1278 8.20999 67.0438 7.82884 66.8757C7.45005 66.7076 7.15175 66.4732 6.93395 66.1726C6.71851 65.8719 6.59659 65.5227 6.56818 65.125H7.47727C7.50095 65.3996 7.59328 65.6269 7.75426 65.8068C7.91761 65.9844 8.12358 66.117 8.37216 66.2045C8.62311 66.2898 8.89299 66.3324 9.18182 66.3324C9.51799 66.3324 9.81984 66.2779 10.0874 66.169C10.3549 66.0578 10.5668 65.9039 10.723 65.7074C10.8793 65.5085 10.9574 65.2765 10.9574 65.0114C10.9574 64.7699 10.8899 64.5734 10.755 64.4219C10.62 64.2704 10.4425 64.1473 10.2223 64.0526C10.0021 63.9579 9.7642 63.875 9.50852 63.804L8.61364 63.5483C8.04545 63.3849 7.59564 63.1518 7.2642 62.8487C6.93277 62.5457 6.76705 62.1491 6.76705 61.6591C6.76705 61.2519 6.87713 60.8968 7.0973 60.5938C7.31984 60.2884 7.61813 60.0516 7.99219 59.8835C8.36861 59.7131 8.78883 59.6278 9.25284 59.6278C9.72159 59.6278 10.1383 59.7119 10.5028 59.88C10.8674 60.0457 11.1563 60.273 11.3693 60.5618C11.5848 60.8506 11.6984 61.1785 11.7102 61.5455H10.858ZM12.9593 65.5085V64.7841L16.1554 59.7273H16.6809V60.8494H16.3258L13.911 64.6705V64.7273H18.215V65.5085H12.9593ZM16.3826 67V65.2884V64.951V59.7273H17.2207V67H16.3826ZM21.8185 67.0994C21.4019 67.0994 21.0266 67.0166 20.6928 66.8509C20.359 66.6851 20.0915 66.4579 19.8903 66.169C19.689 65.8802 19.579 65.5511 19.56 65.1818H20.4123C20.4454 65.5109 20.5946 65.7831 20.8597 65.9986C21.1272 66.2116 21.4469 66.3182 21.8185 66.3182C22.1168 66.3182 22.382 66.2483 22.614 66.1087C22.8484 65.969 23.0318 65.7772 23.1644 65.5334C23.2994 65.2872 23.3668 65.009 23.3668 64.6989C23.3668 64.3816 23.297 64.0987 23.1573 63.8501C23.02 63.5992 22.8306 63.4015 22.5891 63.2571C22.3477 63.1127 22.0719 63.0393 21.7617 63.0369C21.5392 63.0346 21.3107 63.0689 21.0763 63.1399C20.842 63.2086 20.649 63.2973 20.4975 63.4062L19.6737 63.3068L20.114 59.7273H23.8924V60.5085H20.8526L20.5969 62.6534H20.6396C20.7887 62.535 20.9757 62.4368 21.2006 62.3587C21.4255 62.2805 21.6599 62.2415 21.9038 62.2415C22.3488 62.2415 22.7454 62.348 23.0934 62.5611C23.4438 62.7718 23.7184 63.0606 23.9173 63.4276C24.1185 63.7945 24.2191 64.2135 24.2191 64.6847C24.2191 65.1487 24.1149 65.563 23.9066 65.9276C23.7006 66.2898 23.4165 66.5762 23.0543 66.7869C22.6921 66.9953 22.2802 67.0994 21.8185 67.0994ZM25.7576 67V59.7273H26.6383V63.3352H26.7235L29.9906 59.7273H31.1412L28.0872 63.0085L31.1412 67H30.0758L27.5474 63.6193L26.6383 64.642V67H25.7576Z" fill="#828282"/>
<path d="M8.89773 103.909V94.8182H9.48011V103.909H8.89773ZM10.858 97.5455C10.8153 97.1856 10.6425 96.9062 10.3395 96.7074C10.0365 96.5085 9.66477 96.4091 9.22443 96.4091C8.90246 96.4091 8.62074 96.4612 8.37926 96.5653C8.14015 96.6695 7.95313 96.8127 7.81818 96.995C7.68561 97.1773 7.61932 97.3845 7.61932 97.6165C7.61932 97.8106 7.66548 97.9775 7.75781 98.1172C7.85251 98.2545 7.97325 98.3693 8.12003 98.4616C8.26681 98.5516 8.42069 98.6262 8.58168 98.6854C8.74266 98.7422 8.89062 98.7884 9.02557 98.8239L9.7642 99.0227C9.9536 99.0724 10.1643 99.1411 10.3963 99.2287C10.6307 99.3163 10.8544 99.4358 11.0675 99.5874C11.2829 99.7365 11.4605 99.9283 11.6001 100.163C11.7398 100.397 11.8097 100.685 11.8097 101.026C11.8097 101.419 11.7067 101.774 11.5007 102.091C11.2971 102.408 10.9988 102.66 10.6058 102.847C10.2152 103.034 9.74053 103.128 9.18182 103.128C8.66098 103.128 8.20999 103.044 7.82884 102.876C7.45005 102.708 7.15175 102.473 6.93395 102.173C6.71851 101.872 6.59659 101.523 6.56818 101.125H7.47727C7.50095 101.4 7.59328 101.627 7.75426 101.807C7.91761 101.984 8.12358 102.117 8.37216 102.205C8.62311 102.29 8.89299 102.332 9.18182 102.332C9.51799 102.332 9.81984 102.278 10.0874 102.169C10.3549 102.058 10.5668 101.904 10.723 101.707C10.8793 101.509 10.9574 101.277 10.9574 101.011C10.9574 100.77 10.8899 100.573 10.755 100.422C10.62 100.27 10.4425 100.147 10.2223 100.053C10.0021 99.9579 9.7642 99.875 9.50852 99.804L8.61364 99.5483C8.04545 99.3849 7.59564 99.1518 7.2642 98.8487C6.93277 98.5457 6.76705 98.1491 6.76705 97.6591C6.76705 97.2519 6.87713 96.8968 7.0973 96.5938C7.31984 96.2884 7.61813 96.0516 7.99219 95.8835C8.36861 95.7131 8.78883 95.6278 9.25284 95.6278C9.72159 95.6278 10.1383 95.7119 10.5028 95.88C10.8674 96.0457 11.1563 96.273 11.3693 96.5618C11.5848 96.8506 11.6984 97.1785 11.7102 97.5455H10.858ZM12.9593 101.509V100.784L16.1554 95.7273H16.6809V96.8494H16.3258L13.911 100.67V100.727H18.215V101.509H12.9593ZM16.3826 103V101.288V100.951V95.7273H17.2207V103H16.3826ZM21.918 103.099C21.3829 103.099 20.9272 102.954 20.5508 102.663C20.1744 102.369 19.8867 101.944 19.6879 101.388C19.489 100.829 19.3896 100.154 19.3896 99.3636C19.3896 98.5777 19.489 97.9065 19.6879 97.3501C19.8891 96.7914 20.1779 96.3653 20.5543 96.0717C20.9331 95.7758 21.3877 95.6278 21.918 95.6278C22.4483 95.6278 22.9016 95.7758 23.2781 96.0717C23.6568 96.3653 23.9457 96.7914 24.1445 97.3501C24.3458 97.9065 24.4464 98.5777 24.4464 99.3636C24.4464 100.154 24.3469 100.829 24.1481 101.388C23.9492 101.944 23.6616 102.369 23.2852 102.663C22.9087 102.954 22.453 103.099 21.918 103.099ZM21.918 102.318C22.4483 102.318 22.8602 102.062 23.1538 101.551C23.4473 101.04 23.5941 100.311 23.5941 99.3636C23.5941 98.7339 23.5266 98.1977 23.3917 97.755C23.2591 97.3123 23.0674 96.9749 22.8164 96.7429C22.5678 96.5109 22.2683 96.3949 21.918 96.3949C21.3924 96.3949 20.9817 96.6541 20.6857 97.1726C20.3898 97.6887 20.2418 98.419 20.2418 99.3636C20.2418 99.9934 20.3081 100.528 20.4407 100.969C20.5733 101.409 20.7638 101.744 21.0124 101.974C21.2634 102.203 21.5652 102.318 21.918 102.318ZM25.9237 103V95.7273H26.8043V99.3352H26.8896L30.1566 95.7273H31.3072L28.2532 99.0085L31.3072 103H30.2418L27.7134 99.6193L26.8043 100.642V103H25.9237Z" fill="#828282"/>
<path d="M123.22 166.572L108.758 160.543C108.503 160.436 108.221 160.463 107.983 160.617L62.5397 190.104C62.4299 190.175 62.3091 190.22 62.1843 190.236L17.086 196H307V39L287.519 91.5965C287.301 92.1838 286.703 92.432 286.217 92.1365L268.713 81.4885C268.263 81.2148 267.708 81.4058 267.457 81.9209L251.345 114.99C251.057 115.58 250.386 115.729 249.933 115.303L230.741 97.241C230.373 96.8948 229.842 96.9198 229.5 97.2996L200.66 129.249C200.429 129.505 200.103 129.608 199.794 129.522L187.414 126.1C187.187 126.037 186.948 126.075 186.743 126.207L123.991 166.5C123.755 166.652 123.474 166.678 123.22 166.572Z" fill="url(#paint0_linear_23_323)"/>
<path d="M307 39L287.519 91.5965C287.301 92.1838 286.703 92.432 286.217 92.1365L268.713 81.4885C268.263 81.2148 267.708 81.4058 267.457 81.9209L251.345 114.99C251.057 115.58 250.386 115.729 249.933 115.303L230.741 97.241C230.373 96.8948 229.842 96.9198 229.5 97.2996L200.66 129.249C200.429 129.505 200.103 129.608 199.794 129.522L187.414 126.1C187.187 126.037 186.948 126.075 186.743 126.207L123.991 166.5C123.755 166.652 123.474 166.678 123.22 166.572L108.758 160.543C108.503 160.436 108.221 160.463 107.983 160.617L62.5397 190.104C62.4299 190.175 62.3091 190.22 62.1843 190.236L17.086 196L6 196" stroke="#005651" stroke-width="3" stroke-linecap="round"/>
<circle opacity="0.1" cx="307" cy="39" r="15" fill="url(#paint1_radial_23_323)"/>
<circle cx="307" cy="39" r="4" fill="#005651"/>
</g>
<defs>
<linearGradient id="paint0_linear_23_323" x1="156.5" y1="39" x2="156.5" y2="196" gradientUnits="userSpaceOnUse">
<stop stop-color="#2D6EFF" stop-opacity="0.15"/>
<stop offset="1" stop-color="#2D6EFF" stop-opacity="0"/>
</linearGradient>
<radialGradient id="paint1_radial_23_323" cx="0" cy="0" r="1" gradientUnits="userSpaceOnUse" gradientTransform="translate(307 39) rotate(90) scale(15)">
<stop offset="0.615" stop-color="#205C5D"/>
<stop offset="1" stop-color="#205C5D"/>
</radialGradient>
</defs>
</svg>
