<svg width="42" height="42" viewBox="0 0 42 42" fill="none" xmlns="http://www.w3.org/2000/svg">
<rect width="42" height="42" rx="10" fill="#C3C3C3"/>
<path d="M12 14.231L15.15 12M30 14.231L26.85 12M19 20L23 24M23 20L19 24M29 22C29 24.1217 28.1571 26.1566 26.6569 27.6569C25.1566 29.1571 23.1217 30 21 30C18.8783 30 16.8434 29.1571 15.3431 27.6569C13.8429 26.1566 13 24.1217 13 22C13 19.8783 13.8429 17.8434 15.3431 16.3431C16.8434 14.8429 18.8783 14 21 14C23.1217 14 25.1566 14.8429 26.6569 16.3431C28.1571 17.8434 29 19.8783 29 22Z" stroke="#898989" stroke-width="1.5" stroke-linecap="round" stroke-linejoin="round"/>
</svg>
