<svg width="42" height="42" viewBox="0 0 42 42" fill="none" xmlns="http://www.w3.org/2000/svg">
<rect width="42" height="42" rx="10" fill="white"/>
<path d="M12 30.0001L16.63 25.3691M16.635 25.3641L13.855 22.5841C12.901 21.6311 13.861 19.5881 15.165 19.5061C16.343 19.4311 19.07 19.8581 19.977 18.9511L22.467 16.4611C23.084 15.8431 22.692 14.4611 22.652 13.6991C22.594 12.6831 24.21 11.4281 25.067 12.2851L29.714 16.9331C30.574 17.7911 29.314 19.4021 28.301 19.3481C27.539 19.3081 26.156 18.9161 25.538 19.5331L23.048 22.0231C22.142 22.9301 22.568 25.6561 22.494 26.8341C22.412 28.1391 20.369 29.0991 19.414 28.1441L16.635 25.3641Z" stroke="#104544" stroke-width="1.5" stroke-linecap="round" stroke-linejoin="round"/>
</svg>
