<svg width="50" height="50" viewBox="0 0 50 50" fill="none" xmlns="http://www.w3.org/2000/svg">
<circle cx="25" cy="25" r="24.5" stroke="white"/>
<path d="M15.25 23.325C17.6502 28.5507 21.9143 32.6926 27.2075 34.94L28.0575 35.3188C28.9988 35.7379 30.0578 35.8114 31.048 35.5262C32.0381 35.2411 32.8958 34.6156 33.47 33.76L34.5813 32.105C34.7552 31.8455 34.8256 31.5302 34.7786 31.2213C34.7316 30.9125 34.5707 30.6324 34.3275 30.4363L30.5625 27.3988C30.4314 27.293 30.2803 27.2149 30.1182 27.1691C29.9561 27.1232 29.7865 27.1106 29.6194 27.132C29.4523 27.1533 29.2913 27.2083 29.146 27.2934C29.0007 27.3786 28.8741 27.4922 28.7738 27.6275L27.6088 29.1988C24.6183 27.7218 22.1977 25.3008 20.7213 22.31L22.2913 21.145C22.4266 21.0447 22.5402 20.9181 22.6254 20.7728C22.7105 20.6275 22.7654 20.4664 22.7868 20.2994C22.8082 20.1323 22.7955 19.9626 22.7497 19.8006C22.7039 19.6385 22.6257 19.4874 22.52 19.3563L19.4825 15.5913C19.2864 15.3481 19.0063 15.1872 18.6974 15.1402C18.3886 15.0932 18.0733 15.1636 17.8138 15.3375L16.1475 16.455C15.2868 17.0322 14.6589 17.8963 14.3757 18.8932C14.0925 19.8902 14.1725 20.9553 14.6013 21.8988L15.25 23.325Z" fill="white"/>
</svg>
