<svg width="45" height="45" viewBox="0 0 45 45" fill="none" xmlns="http://www.w3.org/2000/svg">
<rect width="45" height="45" rx="6" fill="white"/>
<path d="M15.7684 10.7188C16.0087 10.7188 16.2392 10.8142 16.4092 10.9842C16.5791 11.1541 16.6746 11.3846 16.6746 11.625V14.9624H19.9105C20.0296 14.9624 20.1474 14.9859 20.2573 15.0314C20.3673 15.0769 20.4672 15.1437 20.5514 15.2279C20.6355 15.312 20.7023 15.4119 20.7478 15.5219C20.7934 15.6318 20.8168 15.7497 20.8168 15.8687C20.8168 15.9877 20.7934 16.1055 20.7478 16.2155C20.7023 16.3254 20.6355 16.4253 20.5514 16.5095C20.4672 16.5936 20.3673 16.6604 20.2573 16.7059C20.1474 16.7515 20.0296 16.7749 19.9105 16.7749H16.6758V20.1123C16.6758 20.3527 16.5804 20.5832 16.4104 20.7531C16.2404 20.9231 16.0099 21.0186 15.7696 21.0186C15.5292 21.0186 15.2987 20.9231 15.1288 20.7531C14.9588 20.5832 14.8633 20.3527 14.8633 20.1123V16.7749H11.625C11.3846 16.7749 11.1541 16.6794 10.9842 16.5095C10.8142 16.3395 10.7188 16.109 10.7188 15.8687C10.7188 15.6283 10.8142 15.3978 10.9842 15.2279C11.1541 15.0579 11.3846 14.9624 11.625 14.9624H14.8621V11.625C14.8621 11.3846 14.9576 11.1541 15.1276 10.9842C15.2975 10.8142 15.528 10.7188 15.7684 10.7188ZM25.2188 13.2164C25.2188 12.976 25.3142 12.7455 25.4842 12.5756C25.6541 12.4056 25.8846 12.3101 26.125 12.3101H33.375C33.6154 12.3101 33.8459 12.4056 34.0158 12.5756C34.1858 12.7455 34.2812 12.976 34.2812 13.2164C34.2812 13.4567 34.1858 13.6872 34.0158 13.8572C33.8459 14.0271 33.6154 14.1226 33.375 14.1226H26.125C25.8846 14.1226 25.6541 14.0271 25.4842 13.8572C25.3142 13.6872 25.2188 13.4567 25.2188 13.2164ZM25.2188 18.521C25.2188 18.2806 25.3142 18.0501 25.4842 17.8801C25.6541 17.7102 25.8846 17.6147 26.125 17.6147H33.375C33.6154 17.6147 33.8459 17.7102 34.0158 17.8801C34.1858 18.0501 34.2812 18.2806 34.2812 18.521C34.2812 18.7613 34.1858 18.9918 34.0158 19.1618C33.8459 19.3317 33.6154 19.4272 33.375 19.4272H26.125C25.8846 19.4272 25.6541 19.3317 25.4842 19.1618C25.3142 18.9918 25.2188 18.7613 25.2188 18.521ZM26.2168 26.7243C26.3888 26.5567 26.6203 26.4642 26.8605 26.4671C27.1007 26.4701 27.3298 26.5682 27.4977 26.74L29.7802 29.077L32.0603 26.74C32.1435 26.6548 32.2426 26.5868 32.352 26.5399C32.4615 26.493 32.5791 26.4681 32.6981 26.4667C32.8172 26.4652 32.9353 26.4872 33.0459 26.5314C33.1564 26.5756 33.2572 26.6412 33.3424 26.7243C33.4276 26.8075 33.4956 26.9066 33.5425 27.016C33.5894 27.1255 33.6143 27.2431 33.6157 27.3621C33.6172 27.4811 33.5952 27.5993 33.551 27.7099C33.5068 27.8204 33.4412 27.9212 33.3581 28.0064L31.0465 30.3747L33.3581 32.7418C33.4412 32.827 33.5068 32.9278 33.551 33.0383C33.5952 33.1489 33.6172 33.2671 33.6157 33.3861C33.6143 33.5052 33.5894 33.6228 33.5425 33.7322C33.4956 33.8416 33.4276 33.9407 33.3424 34.0239C33.2572 34.107 33.1564 34.1726 33.0459 34.2168C32.9353 34.261 32.8172 34.283 32.6981 34.2815C32.5791 34.2801 32.4615 34.2552 32.352 34.2083C32.2426 34.1614 32.1435 34.0934 32.0603 34.0082L29.7802 31.6713L27.4989 34.0082C27.4157 34.0934 27.3166 34.1614 27.2072 34.2083C27.0978 34.2552 26.9802 34.2801 26.8611 34.2815C26.7421 34.283 26.6239 34.261 26.5133 34.2168C26.4028 34.1726 26.302 34.107 26.2168 34.0239C26.1316 33.9407 26.0636 33.8416 26.0167 33.7322C25.9698 33.6228 25.9449 33.5052 25.9435 33.3861C25.942 33.2671 25.964 33.1489 26.0082 33.0383C26.0524 32.9278 26.118 32.827 26.2011 32.7418L28.5139 30.3735L26.2011 28.0052C26.0335 27.8332 25.941 27.6017 25.9439 27.3615C25.9469 27.1213 26.045 26.8922 26.2168 26.7243ZM11.2383 30.1922C11.2383 29.9519 11.3338 29.7214 11.5038 29.5514C11.6737 29.3815 11.9042 29.286 12.1446 29.286H19.3946C19.6349 29.286 19.8654 29.3815 20.0354 29.5514C20.2054 29.7214 20.3008 29.9519 20.3008 30.1922C20.3008 30.4326 20.2054 30.6631 20.0354 30.8331C19.8654 31.003 19.6349 31.0985 19.3946 31.0985H12.1446C11.9042 31.0985 11.6737 31.003 11.5038 30.8331C11.3338 30.6631 11.2383 30.4326 11.2383 30.1922Z" fill="#013237"/>
</svg>
