<svg width="50" height="50" viewBox="0 0 50 50" fill="none" xmlns="http://www.w3.org/2000/svg">
<circle cx="25" cy="25" r="24.5" stroke="white"/>
<path d="M35.88 33.9766H33.0275C31.9487 33.9766 31.6238 33.1028 29.69 31.1678C28 29.5391 27.2862 29.3365 26.8587 29.3365C26.2675 29.3365 26.1063 29.499 26.1063 30.3128V32.8778C26.1063 33.5716 25.8813 33.9778 24.0688 33.9778C22.3104 33.8597 20.6052 33.3255 19.0937 32.4192C17.5822 31.513 16.3077 30.2606 15.375 28.7653C13.1613 26.0086 11.6205 22.7739 10.875 19.3178C10.875 18.8903 11.0375 18.5028 11.8525 18.5028H14.7025C15.435 18.5028 15.6988 18.829 15.9863 19.5828C17.37 23.6553 19.7312 27.1978 20.69 27.1978C21.0575 27.1978 21.2175 27.0353 21.2175 26.1191V21.924C21.0963 20.0103 20.08 19.849 20.08 19.1565C20.0929 18.9739 20.1764 18.8034 20.313 18.6813C20.4495 18.5592 20.6283 18.4952 20.8113 18.5028H25.2913C25.9038 18.5028 26.1063 18.8078 26.1063 19.5403V25.2028C26.1063 25.8141 26.3688 26.0165 26.5538 26.0165C26.9212 26.0165 27.2038 25.814 27.8775 25.1415C29.3211 23.3799 30.5009 21.4177 31.38 19.3165C31.4696 19.064 31.6395 18.8478 31.8636 18.701C32.0878 18.5543 32.354 18.4851 32.6213 18.504H35.4725C36.3275 18.504 36.5087 18.9315 36.3275 19.5415C35.2902 21.8644 34.007 24.0695 32.5 26.1191C32.1925 26.5878 32.07 26.8315 32.5 27.3815C32.7825 27.809 33.7825 28.644 34.4538 29.4378C35.4313 30.4128 36.2425 31.5403 36.8563 32.7753C37.1012 33.5703 36.6938 33.9766 35.88 33.9766Z" fill="white"/>
</svg>
