<svg width="50" height="50" viewBox="0 0 50 50" fill="none" xmlns="http://www.w3.org/2000/svg">
<circle cx="25" cy="25" r="24.5" stroke="white"/>
<path d="M30.5097 27.4035C30.2117 27.2504 28.7269 26.523 28.4507 26.4246C28.1746 26.3207 27.9722 26.2715 27.7726 26.5777C27.5703 26.8813 26.996 27.5566 26.8156 27.7617C26.6406 27.9641 26.4628 27.9887 26.1648 27.8383C24.3929 26.9523 23.2308 26.2578 22.0632 24.2535C21.7542 23.7203 22.3722 23.7586 22.9492 22.6074C23.0476 22.4051 22.9984 22.2328 22.9218 22.0797C22.8453 21.9266 22.2437 20.4445 21.9921 19.8402C21.7488 19.2523 21.4972 19.3344 21.314 19.3234C21.139 19.3125 20.9394 19.3125 20.7371 19.3125C20.5347 19.3125 20.2093 19.3891 19.9332 19.6871C19.657 19.9906 18.8777 20.7207 18.8777 22.2027C18.8777 23.6848 19.9578 25.1203 20.1054 25.3227C20.2585 25.525 22.23 28.5656 25.257 29.8754C27.171 30.7012 27.9203 30.7723 28.8773 30.6301C29.4597 30.5426 30.6601 29.9027 30.9089 29.1945C31.1578 28.4891 31.1578 27.8848 31.0839 27.759C31.0101 27.625 30.8078 27.5484 30.5097 27.4035Z" fill="white"/>
<path d="M36.2985 20.2531C35.6805 18.7848 34.7946 17.4668 33.6653 16.3348C32.536 15.2055 31.218 14.3168 29.7469 13.7016C28.243 13.0699 26.6461 12.75 25 12.75H24.9453C23.2883 12.7582 21.6832 13.0863 20.1739 13.7316C18.7164 14.3551 17.4094 15.241 16.291 16.3703C15.1727 17.4996 14.295 18.8121 13.6879 20.275C13.059 21.7898 12.7418 23.4004 12.75 25.0574C12.7582 26.9551 13.2121 28.8391 14.0625 30.5234V34.6797C14.0625 35.3742 14.6258 35.9375 15.3203 35.9375H19.4793C21.1637 36.7879 23.0477 37.2418 24.9453 37.25H25.0028C26.6407 37.25 28.2293 36.9328 29.725 36.3121C31.1879 35.7023 32.5032 34.8273 33.6297 33.709C34.759 32.5906 35.6477 31.2836 36.2684 29.8262C36.9137 28.3168 37.2418 26.7117 37.25 25.0547C37.2582 23.3895 36.9356 21.7734 36.2985 20.2531ZM32.1668 32.2297C30.25 34.1273 27.7071 35.1719 25 35.1719H24.9535C23.3047 35.1637 21.6668 34.7535 20.2203 33.9824L19.9907 33.8594H16.1407V30.0094L16.0176 29.7797C15.2465 28.3332 14.8364 26.6953 14.8282 25.0465C14.8172 22.3203 15.859 19.7609 17.7703 17.8332C19.6789 15.9055 22.2301 14.8391 24.9563 14.8281H25.0028C26.37 14.8281 27.6961 15.0934 28.9457 15.6184C30.1653 16.1297 31.259 16.8652 32.1996 17.8059C33.1375 18.7437 33.8758 19.8402 34.3871 21.0598C34.9176 22.323 35.1828 23.6629 35.1774 25.0465C35.161 27.7699 34.0918 30.3211 32.1668 32.2297Z" fill="white"/>
</svg>
