<svg width="42" height="42" viewBox="0 0 42 42" fill="none" xmlns="http://www.w3.org/2000/svg">
<rect width="42" height="42" rx="10" fill="white"/>
<path d="M15.5 12.75C14.974 12.75 14.25 13.38 14.25 14.571V27.43C14.25 28.622 14.974 29.251 15.5 29.251H22.496C22.6949 29.251 22.8857 29.33 23.0263 29.4707C23.167 29.6113 23.246 29.8021 23.246 30.001C23.246 30.1999 23.167 30.3907 23.0263 30.5314C22.8857 30.672 22.6949 30.751 22.496 30.751H15.5C13.817 30.751 12.75 29.078 12.75 27.43V14.57C12.75 12.922 13.817 11.249 15.5 11.249H22.5C22.6989 11.249 22.8897 11.328 23.0303 11.4687C23.171 11.6093 23.25 11.8001 23.25 11.999C23.25 12.1979 23.171 12.3887 23.0303 12.5294C22.8897 12.67 22.6989 12.749 22.5 12.749L15.5 12.75Z" fill="#104544"/>
<path d="M29.25 20.9961C29.25 20.7972 29.171 20.6064 29.0303 20.4657C28.8897 20.3251 28.6989 20.2461 28.5 20.2461H22.53V16.9701C22.3894 16.8296 22.1988 16.7507 22 16.7507C21.8012 16.7507 21.6106 16.8296 21.47 16.9701L18.019 20.4201C17.9347 20.4905 17.8669 20.5786 17.8205 20.6782C17.774 20.7777 17.7499 20.8862 17.75 20.9961V20.9981C17.75 21.1911 17.823 21.3831 17.97 21.5301L21.47 25.0301C21.6106 25.1705 21.8012 25.2494 22 25.2494C22.1988 25.2494 22.3894 25.1705 22.53 25.0301V21.7461H28.5C28.6989 21.7461 28.8897 21.6671 29.0303 21.5264C29.171 21.3858 29.25 21.195 29.25 20.9961Z" fill="#104544"/>
</svg>
